<svg xmlns="http://www.w3.org/2000/svg" width="22" height="23" viewBox="0 0 22 23" fill="none">
  <path d="M10.7267 19.0798C10.8465 19.0798 10.9694 19.0529 11.0952 18.9991C11.2211 18.9454 11.3229 18.8797 11.4005 18.8021L18.5468 11.6548C18.7772 11.4244 18.9551 11.1891 19.0803 10.949C19.205 10.7076 19.2673 10.443 19.2673 10.1551C19.2673 9.86364 19.205 9.5807 19.0803 9.30631C18.9551 9.03131 18.7772 8.78075 18.5468 8.55464L15.1093 5.11714C14.8826 4.88675 14.6495 4.71778 14.4099 4.61023C14.171 4.50267 13.9057 4.44889 13.6142 4.44889C13.3264 4.44889 13.0591 4.50267 12.8122 4.61023C12.5653 4.71778 12.3327 4.88645 12.1146 5.11623L11.3152 5.91556L13.0111 7.61598C13.1932 7.79503 13.3292 7.99853 13.419 8.22648C13.5082 8.45442 13.5528 8.68573 13.5528 8.92039C13.5528 9.39767 13.3967 9.79245 13.0844 10.1047C12.7721 10.417 12.3777 10.5728 11.901 10.5722C11.6657 10.5722 11.4362 10.5365 11.2126 10.465C10.9889 10.3935 10.7875 10.2682 10.6085 10.0891L8.85491 8.34198L4.89674 12.2992C4.80447 12.3921 4.73511 12.4975 4.68866 12.6155C4.64222 12.7334 4.61899 12.8526 4.61899 12.973C4.61899 13.1893 4.68836 13.3674 4.82708 13.5074C4.96519 13.6479 5.14241 13.7182 5.35874 13.7182C5.47852 13.7182 5.60136 13.6913 5.72724 13.6376C5.85313 13.5832 5.95488 13.5172 6.03249 13.4396L8.93741 10.5346L9.58641 11.1836L6.68608 14.0895C6.59319 14.1818 6.52352 14.2869 6.47708 14.4048C6.43124 14.5234 6.40833 14.6425 6.40833 14.7623C6.40833 14.967 6.48044 15.1415 6.62466 15.2857C6.76888 15.4299 6.94336 15.5024 7.14808 15.503C7.26786 15.503 7.39069 15.4758 7.51658 15.4214C7.64247 15.367 7.74422 15.3013 7.82183 15.2243L10.9385 12.1131L11.5875 12.7612L8.47541 15.8779C8.39413 15.9555 8.32752 16.0573 8.27558 16.1831C8.22302 16.309 8.19675 16.4319 8.19675 16.5516C8.19675 16.7558 8.26916 16.9299 8.41399 17.0741C8.55822 17.2196 8.73269 17.2923 8.93741 17.2923C9.05719 17.2923 9.17636 17.2691 9.29491 17.2226C9.41347 17.1762 9.51858 17.1065 9.61024 17.0136L12.7269 13.9016L13.3759 14.5506L10.2592 17.6672C10.167 17.7601 10.0976 17.8716 10.0512 18.0018C10.0047 18.132 9.98149 18.2508 9.98149 18.3584C9.98149 18.5747 10.0576 18.7492 10.2097 18.8818C10.3619 19.0144 10.5342 19.0807 10.7267 19.0807M10.7212 19.9974C10.2501 19.9974 9.84674 19.8251 9.51124 19.4804C9.17575 19.1351 9.02847 18.7092 9.06941 18.2026C8.54997 18.2087 8.11761 18.0538 7.77233 17.7378C7.42705 17.4213 7.26297 16.98 7.28008 16.4141C6.71419 16.4203 6.26808 16.2583 5.94174 15.9283C5.61541 15.5983 5.46691 15.1638 5.49624 14.6248C4.98658 14.6309 4.56002 14.4873 4.21658 14.194C3.87374 13.9019 3.70233 13.4949 3.70233 12.973C3.70233 12.7377 3.74786 12.5024 3.83891 12.2671C3.92997 12.0313 4.06441 11.8241 4.24224 11.6456L8.85491 7.03848L11.2217 9.40531C11.2994 9.48659 11.3953 9.5535 11.5096 9.60606C11.6239 9.65862 11.7525 9.68459 11.8955 9.68398C12.0917 9.68398 12.2649 9.61553 12.4152 9.47864C12.5656 9.34175 12.6411 9.16331 12.6417 8.94331C12.6417 8.80031 12.6154 8.67198 12.5628 8.55831C12.5103 8.44403 12.4437 8.34809 12.363 8.27048L9.20966 5.11714C8.98233 4.88675 8.74613 4.71778 8.50108 4.61023C8.25602 4.50267 7.98774 4.44889 7.69624 4.44889C7.40841 4.44889 7.14686 4.50267 6.91158 4.61023C6.67691 4.71778 6.44438 4.88675 6.21399 5.11714L3.42366 7.91298C3.22688 8.10853 3.06799 8.34228 2.94699 8.61423C2.82599 8.88556 2.76183 9.16575 2.75449 9.45481C2.74838 9.66198 2.76611 9.86089 2.80766 10.0516C2.84922 10.2422 2.91644 10.4219 3.00933 10.5906L2.31449 11.2854C2.16049 11.0397 2.04011 10.7568 1.95333 10.4366C1.86655 10.1163 1.82652 9.78939 1.83324 9.45573C1.84058 9.03895 1.92399 8.6402 2.08349 8.25948C2.24299 7.87875 2.47155 7.53928 2.76916 7.24106L5.54208 4.46814C5.86169 4.15159 6.19994 3.91631 6.55683 3.76231C6.91372 3.60892 7.29963 3.53223 7.71458 3.53223C8.12952 3.53223 8.51208 3.60923 8.86225 3.76323C9.21302 3.91662 9.54669 4.15159 9.86325 4.46814L10.6607 5.26656L11.4601 4.46814C11.7797 4.15159 12.1149 3.91631 12.4657 3.76231C12.8164 3.60892 13.1993 3.53223 13.6142 3.53223C14.0292 3.53223 14.4151 3.60923 14.772 3.76323C15.1283 3.91662 15.4644 4.15159 15.7803 4.46814L19.1958 7.88273C19.5118 8.19867 19.7556 8.55342 19.9273 8.94698C20.0991 9.34053 20.1846 9.74478 20.184 10.1597C20.184 10.5753 20.0984 10.9581 19.9273 11.3083C19.7562 11.6585 19.5124 11.9921 19.1958 12.3093L12.0486 19.4501C11.8585 19.6408 11.6514 19.7795 11.4271 19.8663C11.2034 19.9531 10.9681 19.9965 10.7212 19.9965" fill="#333333"/>
</svg>