<svg xmlns="http://www.w3.org/2000/svg" width="30" height="31" viewBox="0 0 30 31" fill="none">
  <g clip-path="url(#clip0_185_2227)">
    <path d="M29 23L25.0002 19.0002M19.6666 20.3332C20.5421 20.3332 21.409 20.1607 22.2178 19.8257C23.0266 19.4907 23.7615 18.9996 24.3806 18.3806C24.9996 17.7615 25.4907 17.0266 25.8257 16.2178C26.1607 15.409 26.3332 14.5421 26.3332 13.6666C26.3332 12.7911 26.1607 11.9242 25.8257 11.1154C25.4907 10.3066 24.9996 9.57165 24.3806 8.9526C23.7615 8.33355 23.0266 7.84249 22.2178 7.50746C21.409 7.17244 20.5421 7 19.6666 7C17.8985 7 16.2028 7.70237 14.9526 8.9526C13.7024 10.2028 13 11.8985 13 13.6666C13 15.4347 13.7024 17.1303 14.9526 18.3806C16.2028 19.6308 17.8985 20.3332 19.6666 20.3332Z" stroke="#3092FA" stroke-width="1.7" stroke-linecap="round"/>
  </g>
  <defs>
    <clipPath id="clip0_185_2227">
      <rect width="30" height="30" fill="white" transform="translate(0 0.495117)"/>
    </clipPath>
  </defs>
</svg>