<svg xmlns="http://www.w3.org/2000/svg" width="25" height="25" viewBox="0 0 25 25" fill="none">
  <path d="M23.6689 12.075C23.5949 11.9446 23.4957 11.8303 23.3769 11.7387C23.2582 11.6472 23.1224 11.5802 22.9775 11.5418C22.1392 11.3289 21.2686 11.2736 20.4101 11.3787C20.9453 9.283 20.6425 7.63261 20.3369 6.69121C20.2471 6.40979 20.0557 6.17192 19.8001 6.02403C19.5444 5.87615 19.2427 5.82886 18.9541 5.8914C17.8599 6.13786 16.829 6.60909 15.9267 7.27519C15.331 5.89144 14.3935 4.68172 13.2021 3.75957C12.9995 3.60513 12.7518 3.52148 12.497 3.52148C12.2423 3.52148 11.9946 3.60513 11.792 3.75957C10.6006 4.68172 9.66308 5.89144 9.06735 7.27519C8.16497 6.60921 7.13407 6.13799 6.04 5.8914C5.75132 5.82886 5.4497 5.87615 5.19401 6.02403C4.93832 6.17192 4.74693 6.40979 4.65719 6.69121C4.35153 7.63652 4.04879 9.28691 4.58395 11.3787C3.7264 11.274 2.85686 11.3293 2.01949 11.5418C1.87457 11.5802 1.73878 11.6472 1.62005 11.7387C1.50133 11.8303 1.40207 11.9446 1.32809 12.075C1.24964 12.2097 1.19887 12.3588 1.17875 12.5134C1.15862 12.668 1.16956 12.8251 1.2109 12.9754C1.52731 14.1473 2.49996 16.3748 5.4609 18.1434C8.42184 19.9119 11.0791 19.9217 12.5 19.9217C13.9209 19.9217 16.5634 19.9217 19.538 18.1434C22.5127 16.365 23.4716 14.1463 23.788 12.9754C23.8291 12.8249 23.8397 12.6678 23.8193 12.5132C23.7988 12.3586 23.7477 12.2096 23.6689 12.075ZM19.1211 6.65117C19.2212 6.63041 19.3256 6.64786 19.4136 6.70007C19.5016 6.75229 19.5669 6.83551 19.5966 6.93339C19.9873 8.1541 20.3779 10.6785 18.5449 13.867C17.5244 15.6434 16.0927 17.0115 14.8232 17.9139C15.8203 16.6014 16.7968 14.574 16.7968 11.6394C16.8071 10.4115 16.613 9.19043 16.2226 8.02617C17.0758 7.36011 18.0655 6.8906 19.1211 6.65117ZM5.40328 6.93339C5.43385 6.83629 5.49951 6.75406 5.58746 6.70278C5.6754 6.65149 5.7793 6.63483 5.87887 6.65605C6.93402 6.89403 7.92369 7.36185 8.77731 8.02617C8.38689 9.19043 8.19284 10.4115 8.20309 11.6394C8.20309 14.574 9.17965 16.6023 10.1767 17.9119C8.90719 17.0096 7.47555 15.6414 6.45504 13.865C4.62106 10.6736 5.00875 8.14921 5.40328 6.93339ZM5.86422 17.4803C3.13961 15.8523 2.25094 13.8357 1.96774 12.7781C1.95333 12.7271 1.94944 12.6737 1.95633 12.6212C1.96321 12.5686 1.98072 12.518 2.00778 12.4725C2.0306 12.4313 2.06147 12.3951 2.09854 12.3661C2.13562 12.3371 2.17814 12.3158 2.2236 12.3035C3.07737 12.0892 3.96655 12.0559 4.83395 12.2059C5.08359 12.9174 5.39943 13.604 5.77731 14.2566C7.07418 16.5125 8.96676 18.1307 10.4912 19.0525C8.85251 18.8683 7.27361 18.3295 5.86422 17.4734V17.4803ZM12.5048 19.076C11.8684 18.6328 11.3055 18.0923 10.8369 17.4744C9.60641 15.8768 8.98434 13.9158 8.98434 11.6394C8.98434 7.31816 11.2783 5.12089 12.2646 4.37773C12.3324 4.32655 12.415 4.29887 12.5 4.29887C12.5849 4.29887 12.6675 4.32655 12.7353 4.37773C13.7216 5.12089 16.0156 7.31816 16.0156 11.6394C16.0156 13.9158 15.3935 15.8768 14.1679 17.4676C13.6993 18.0855 13.1364 18.626 12.5 19.0691L12.5048 19.076ZM23.0371 12.7781C22.7519 13.8357 21.8652 15.8523 19.1406 17.4803C17.731 18.3356 16.1521 18.8738 14.5136 19.0574C16.038 18.1355 17.9316 16.5184 19.2275 14.2615C19.6054 13.6089 19.9212 12.9223 20.1709 12.2107C21.0382 12.0604 21.9275 12.0936 22.7812 12.3084C22.8267 12.3207 22.8692 12.3419 22.9063 12.371C22.9433 12.4 22.9742 12.4362 22.997 12.4773C23.0469 12.5669 23.0595 12.6725 23.0322 12.7713L23.0371 12.7781Z" fill="#717171"/>
</svg>