<svg xmlns="http://www.w3.org/2000/svg" width="25" height="25" viewBox="0 0 25 25" fill="none">
  <path d="M6.24948 12.1851C3.87396 12.9283 2.34375 14.0939 2.34375 15.4043C2.34375 17.6491 6.83229 19.4689 12.3698 19.4689C17.9073 19.4689 22.3958 17.6491 22.3958 15.4043C22.3958 14.0939 20.8656 12.9283 18.4906 12.1851" stroke="#333333" stroke-width="0.520833" stroke-linecap="round" stroke-linejoin="round"/>
  <path d="M2.34375 15.5137C2.34375 17.7585 4.78229 20.6621 12.3698 20.6621C19.9573 20.6621 22.3958 17.6491 22.3958 15.4043" stroke="#333333" stroke-width="0.520833" stroke-linecap="round" stroke-linejoin="round"/>
  <path d="M4.78235 6.76562C4.78235 9.95052 6.90735 16.174 12.3698 16.174C17.8323 16.174 19.9568 9.95052 19.9568 6.76615" stroke="#333333" stroke-width="0.520833" stroke-linecap="round" stroke-linejoin="round"/>
  <path d="M12.3698 9.19414C16.56 9.19414 19.9568 8.10703 19.9568 6.76602C19.9568 5.425 16.56 4.33789 12.3698 4.33789C8.17964 4.33789 4.78284 5.425 4.78284 6.76602C4.78284 8.10703 8.17964 9.19414 12.3698 9.19414Z" stroke="#333333" stroke-width="0.520833" stroke-linecap="round" stroke-linejoin="round"/>
  <path d="M19.6104 7.49248C18.7229 6.47998 15.8172 5.73779 12.3698 5.73779C8.92241 5.73779 6.01668 6.47998 5.12866 7.493M18.8266 11.5237C21.9724 12.0862 22.6563 10.2961 22.6563 8.94925C22.6563 7.60238 22.1396 6.76592 20.95 6.76592C20.7556 6.76663 20.5639 6.81121 20.3891 6.89634C20.2143 6.98147 20.061 7.10496 19.9406 7.25758" stroke="#333333" stroke-width="0.520833" stroke-linecap="round" stroke-linejoin="round"/>
</svg>