<svg xmlns="http://www.w3.org/2000/svg" width="25" height="25" viewBox="0 0 25 25" fill="none">
  <path d="M2.34375 14.4948H22.6562M21.5104 14.4948C21.5104 9.51875 17.4766 5.48438 12.5 5.48438C7.52344 5.48438 3.48958 9.51875 3.48958 14.4948" stroke="#333333" stroke-width="0.520833" stroke-linecap="round" stroke-linejoin="round"/>
  <path d="M8.74744 7.67275C7.81649 8.28007 7.04708 9.10452 6.50543 10.0751C5.96378 11.0458 5.66611 12.1335 5.63806 13.2446M12.5 5.48421V4.30713M12.9896 17.9946C15.6969 17.9618 16.0438 17.8488 21.0495 16.578C21.3646 16.4983 21.5985 16.6597 21.6672 16.8431C21.7375 17.0306 21.7089 17.3629 21.2813 17.4738C20.4375 17.6925 15.1771 20.1196 13.9792 20.1196C12.7813 20.1196 9.29171 19.8592 7.97921 19.8592C6.66671 19.8592 5.13546 20.6925 5.13546 20.6925C4.08337 19.7134 3.41671 18.0884 3.23962 16.328H16.2396C16.7761 16.328 16.948 17.078 16.4896 17.2863C15.8099 17.5951 14.6563 17.9946 12.9896 17.9946Z" stroke="#333333" stroke-width="0.520833" stroke-linecap="round" stroke-linejoin="round"/>
</svg>