<svg xmlns="http://www.w3.org/2000/svg" width="25" height="25" viewBox="0 0 25 25" fill="none">
  <path d="M7.03125 11.7188C7.03125 11.8733 6.98543 12.0243 6.89959 12.1528C6.81374 12.2813 6.69173 12.3814 6.54897 12.4405C6.40622 12.4997 6.24913 12.5151 6.09759 12.485C5.94604 12.4548 5.80683 12.3804 5.69757 12.2712C5.58831 12.1619 5.51391 12.0227 5.48376 11.8712C5.45362 11.7196 5.46909 11.5625 5.52822 11.4198C5.58735 11.277 5.68748 11.155 5.81596 11.0692C5.94444 10.9833 6.09548 10.9375 6.25 10.9375C6.4572 10.9375 6.65591 11.0198 6.80243 11.1663C6.94894 11.3128 7.03125 11.5115 7.03125 11.7188ZM23.0469 11.7188V20.3125C23.0469 20.6233 22.9234 20.9214 22.7036 21.1411C22.4839 21.3609 22.1858 21.4844 21.875 21.4844H10.9375C10.6267 21.4844 10.3286 21.3609 10.1089 21.1411C9.88909 20.9214 9.76562 20.6233 9.76562 20.3125V16.4902C8.99414 18.5801 7.71484 19.9219 6.25 19.9219C3.84082 19.9219 1.95312 16.3184 1.95312 11.7188C1.95312 7.11914 3.84082 3.51562 6.25 3.51562H18.75C21.1592 3.51562 23.0469 7.11914 23.0469 11.7188ZM9.76562 11.7188C9.76562 7.69531 8.15527 4.29688 6.25 4.29688C4.34473 4.29688 2.73438 7.69531 2.73438 11.7188C2.73438 15.7422 4.34473 19.1406 6.25 19.1406C8.15527 19.1406 9.76562 15.7422 9.76562 11.7188ZM22.2656 20.3125V12.1094H20.3125C20.2089 12.1094 20.1095 12.0682 20.0363 11.995C19.963 11.9217 19.9219 11.8224 19.9219 11.7188C19.9219 11.6151 19.963 11.5158 20.0363 11.4425C20.1095 11.3693 20.2089 11.3281 20.3125 11.3281H22.2656C22.168 7.47852 20.5986 4.29688 18.7549 4.29688H8.11035C9.50586 5.54688 10.4678 8.17969 10.542 11.3281H12.4951C12.5987 11.3281 12.6981 11.3693 12.7713 11.4425C12.8446 11.5158 12.8857 11.6151 12.8857 11.7188C12.8857 11.8224 12.8446 11.9217 12.7713 11.995C12.6981 12.0682 12.5987 12.1094 12.4951 12.1094H10.5469V20.3125C10.5469 20.4161 10.588 20.5155 10.6613 20.5887C10.7345 20.662 10.8339 20.7031 10.9375 20.7031H21.875C21.9786 20.7031 22.078 20.662 22.1512 20.5887C22.2245 20.5155 22.2656 20.4161 22.2656 20.3125ZM17.1875 11.3281H15.625C15.5214 11.3281 15.422 11.3693 15.3488 11.4425C15.2755 11.5158 15.2344 11.6151 15.2344 11.7188C15.2344 11.8224 15.2755 11.9217 15.3488 11.995C15.422 12.0682 15.5214 12.1094 15.625 12.1094H17.1875C17.2911 12.1094 17.3905 12.0682 17.4637 11.995C17.537 11.9217 17.5781 11.8224 17.5781 11.7188C17.5781 11.6151 17.537 11.5158 17.4637 11.4425C17.3905 11.3693 17.2911 11.3281 17.1875 11.3281Z" fill="#717171"/>
</svg>