<svg xmlns="http://www.w3.org/2000/svg" width="25" height="25" viewBox="0 0 25 25" fill="none">
  <path d="M20.3125 3.51544H15.625C15.3142 3.51544 15.0161 3.63891 14.7964 3.85868C14.5766 4.07845 14.4531 4.37652 14.4531 4.68732V20.3123C14.4531 20.6231 14.5766 20.9212 14.7964 21.141C15.0161 21.3607 15.3142 21.4842 15.625 21.4842H20.3125C20.6233 21.4842 20.9214 21.3607 21.1411 21.141C21.3609 20.9212 21.4844 20.6231 21.4844 20.3123V4.68732C21.4844 4.37652 21.3609 4.07845 21.1411 3.85868C20.9214 3.63891 20.6233 3.51544 20.3125 3.51544ZM20.7031 20.3123C20.7031 20.4159 20.662 20.5153 20.5887 20.5885C20.5155 20.6618 20.4161 20.7029 20.3125 20.7029H15.625C15.5214 20.7029 15.422 20.6618 15.3488 20.5885C15.2755 20.5153 15.2344 20.4159 15.2344 20.3123V16.7967H17.9688C18.0724 16.7967 18.1717 16.7555 18.245 16.6823C18.3182 16.609 18.3594 16.5097 18.3594 16.4061C18.3594 16.3025 18.3182 16.2031 18.245 16.1299C18.1717 16.0566 18.0724 16.0154 17.9688 16.0154H15.2344V12.8904H17.9688C18.0724 12.8904 18.1717 12.8493 18.245 12.776C18.3182 12.7028 18.3594 12.6034 18.3594 12.4998C18.3594 12.3962 18.3182 12.2969 18.245 12.2236C18.1717 12.1503 18.0724 12.1092 17.9688 12.1092H15.2344V8.98419H17.9688C18.0724 8.98419 18.1717 8.94304 18.245 8.86978C18.3182 8.79653 18.3594 8.69717 18.3594 8.59357C18.3594 8.48997 18.3182 8.39061 18.245 8.31736C18.1717 8.2441 18.0724 8.20294 17.9688 8.20294H15.2344V4.68732C15.2344 4.58372 15.2755 4.48436 15.3488 4.41111C15.422 4.33785 15.5214 4.29669 15.625 4.29669H20.3125C20.4161 4.29669 20.5155 4.33785 20.5887 4.41111C20.662 4.48436 20.7031 4.58372 20.7031 4.68732V20.3123ZM7.30762 2.84845C7.27134 2.81213 7.22826 2.78332 7.18084 2.76366C7.13341 2.74401 7.08258 2.73389 7.03125 2.73389C6.97992 2.73389 6.92909 2.74401 6.88166 2.76366C6.83424 2.78332 6.79116 2.81213 6.75488 2.84845L3.62988 5.97345C3.59362 6.00976 3.56486 6.05285 3.54526 6.10027C3.52565 6.14769 3.51558 6.19851 3.51563 6.24982V20.3123C3.51563 20.6231 3.63909 20.9212 3.85886 21.141C4.07863 21.3607 4.3767 21.4842 4.6875 21.4842H9.375C9.6858 21.4842 9.98387 21.3607 10.2036 21.141C10.4234 20.9212 10.5469 20.6231 10.5469 20.3123V6.24982C10.5469 6.19851 10.5368 6.14769 10.5172 6.10027C10.4976 6.05285 10.4689 6.00976 10.4326 5.97345L7.30762 2.84845ZM4.29688 7.42169H6.64062V17.5779H4.29688V7.42169ZM9.76562 20.3123C9.76562 20.4159 9.72447 20.5153 9.65121 20.5885C9.57796 20.6618 9.4786 20.7029 9.375 20.7029H4.6875C4.5839 20.7029 4.48454 20.6618 4.41129 20.5885C4.33803 20.5153 4.29688 20.4159 4.29688 20.3123V18.3592H9.76562V20.3123ZM9.76562 17.5779H7.42188V7.42169H9.76562V17.5779ZM9.76562 6.64044H4.29688V6.41193L7.03125 3.67755L9.76562 6.41193V6.64044Z" fill="#717171"/>
</svg>